<?xml version="1.0" encoding="iso-8859-1"?>
<!-- Generator: Adobe Illustrator 19.0.0, SVG Export Plug-In . SVG Version: 6.00 Build 0)  -->
<svg version="1.1" id="Capa_1" xmlns="http://www.w3.org/2000/svg" xmlns:xlink="http://www.w3.org/1999/xlink" x="0px" y="0px"
	 viewBox="0 0 512 512" style="enable-background:new 0 0 512 512;" xml:space="preserve">
<g>
	<g>
		<path d="M134.142,386.455h-29.479c-4.142,0-7.5,3.358-7.5,7.5c0,4.142,3.358,7.5,7.5,7.5h29.479c4.142,0,7.5-3.358,7.5-7.5
			C141.642,389.813,138.284,386.455,134.142,386.455z"/>
	</g>
</g>
<g>
	<g>
		<path d="M307.517,302.099l-42.97-16.574l-21.926-21.926c-1.426-1.426-3.292-2.159-5.173-2.191v-17.919
			c10.377-11.025,17.75-25.021,20.668-40.8c0.006-0.007,0.013-0.015,0.02-0.022c1.91,0.115,3.839-0.026,5.743-0.416
			c10.306-2.11,17.787-11.678,17.787-22.751v-5.743c0-6.491-2.667-12.44-6.996-16.653c7.032-37.871,1.354-68.717-16.492-89.325
			c-17.205-19.868-44.948-29.362-80.223-27.455c-32.856,1.776-53.958,16.992-60.433,22.357c-9.112,1.184-35.099,7.751-35.099,44.089
			c0,20.121,3.269,36.855,5.564,46.131c-7.733,3.615-12.934,11.686-12.934,20.942v5.656c0,11.073,7.48,20.642,17.787,22.751
			c1.905,0.39,3.836,0.531,5.744,0.416c0.007,0.007,0.014,0.015,0.02,0.022c2.918,15.779,10.291,29.774,20.668,40.8v17.919
			c-1.881,0.033-3.747,0.765-5.173,2.191l-21.926,21.926l-42.97,16.574c-20.664,7.97-33.951,28.194-33.064,50.323L22.241,504.8
			c0.162,4.037,3.485,7.2,7.489,7.2c0.102,0,0.204-0.002,0.306-0.006c4.139-0.166,7.359-3.655,7.194-7.794l-6.103-152.379
			c-0.162-4.05,0.349-8.009,1.442-11.754l24.362,24.362c6.935,6.935,10.754,16.156,10.754,25.963V504.5c0,4.142,3.358,7.5,7.5,7.5
			c4.142,0,7.5-3.358,7.5-7.5V390.393c0-13.814-5.379-26.802-15.148-36.57l-27.489-27.489c3.852-4.456,8.798-8.02,14.554-10.24
			l40.091-15.464l30.605,45.908c3.71,5.566,9.656,9.136,16.313,9.795c0.741,0.074,1.48,0.11,2.216,0.11
			c4.091,0,8.05-1.146,11.504-3.248l-6.573,150.979c-0.18,4.138,3.028,7.639,7.167,7.819c0.111,0.005,0.222,0.007,0.332,0.007
			c3.992,0,7.312-3.147,7.487-7.174l6.095-139.988h17.043l6.095,139.988c0.175,4.027,3.495,7.174,7.487,7.174
			c0.11,0,0.221-0.002,0.332-0.007c4.138-0.18,7.347-3.681,7.167-7.819l-6.573-150.979c3.454,2.103,7.413,3.248,11.505,3.248
			c0.735,0,1.475-0.037,2.216-0.11c6.656-0.659,12.602-4.229,16.312-9.795l30.605-45.908l40.091,15.464
			c5.756,2.22,10.702,5.784,14.554,10.24l-27.489,27.489c-9.769,9.768-15.148,22.755-15.148,36.57V504.5c0,4.142,3.358,7.5,7.5,7.5
			c4.142,0,7.5-3.358,7.5-7.5V390.393c0-9.808,3.819-19.028,10.754-25.963l24.362-24.362c1.093,3.745,1.604,7.704,1.442,11.754
			L319.49,504.2c-0.166,4.139,3.055,7.628,7.194,7.794c0.103,0.004,0.204,0.006,0.306,0.006c4.003,0,7.327-3.164,7.489-7.2
			l6.103-152.378C341.467,330.292,328.18,310.069,307.517,302.099z M113.34,199.881c-1.356-7.379-8.185-12.735-15.554-12.194
			c-0.63,0.045-1.282,0.002-1.936-0.132c-3.304-0.676-5.795-4.14-5.795-8.056v-5.656c0-3.832,2.579-7.287,5.871-7.864
			c2.766-0.486,5.424,0.531,7.103,2.72c1.398,1.825,3.263,3.129,5.389,3.771c3.115,0.941,6.552,0.39,9.193-1.475
			c6.096-4.303,11.262-9.761,15.357-16.221c2.217-3.499,1.179-8.132-2.32-10.35c-3.498-2.217-8.132-1.18-10.35,2.32
			c-2.334,3.683-5.126,6.918-8.329,9.656c-2.551-2.246-5.564-3.855-8.801-4.742c-2.008-7.593-5.744-24.462-5.744-44.889
			c0-12.215,3.786-20.805,11.254-25.529c5.813-3.678,11.951-3.819,11.953-3.819c1.938,0,3.8-0.75,5.197-2.093
			c0.189-0.182,19.314-18.21,52.937-20.027c30.476-1.645,54.016,6.063,68.074,22.296c14.24,16.444,18.933,41.711,13.692,73.323
			c-2.254-0.105-4.753,0.06-7.238,0.495l-7.516-18.05c-1.439-3.456-5.205-5.321-8.828-4.371
			c-0.732,0.192-73.627,18.791-104.361-19.472c-2.593-3.229-7.313-3.745-10.544-1.151c-3.229,2.594-3.745,7.315-1.15,10.544
			c31.176,38.814,93.262,30.113,113.459,26.035l5.842,14.03c2.389,5.736,8.5,8.868,14.525,7.449
			c2.363-0.556,4.936-0.658,6.056-0.435c3.358,0.668,5.891,4.005,5.891,7.763v5.743c0,3.917-2.492,7.38-5.795,8.056
			c-0.653,0.134-1.303,0.178-1.937,0.131c-7.357-0.539-14.197,4.815-15.553,12.194c-5.763,31.377-33.109,54.151-65.021,54.151
			C146.449,254.032,119.103,231.258,113.34,199.881z M148.922,339.323c-1.541,1.538-3.667,2.297-5.833,2.083
			c-2.167-0.214-4.102-1.376-5.31-3.188l-30.834-46.251l12.8-12.799l47.644,41.688L148.922,339.323z M170.491,349.838l0.495-11.369
			l7.374-7.374l7.374,7.374l0.495,11.369H170.491z M178.36,310.523l-44.088-38.577v-15.948
			c12.772,8.276,27.951,13.033,44.088,13.033c16.137,0,31.316-4.757,44.088-13.033v15.948L178.36,310.523z M218.94,338.218
			c-1.208,1.812-3.143,2.974-5.31,3.188c-2.167,0.215-4.292-0.545-5.833-2.085l-18.466-18.467l47.644-41.688l12.8,12.799
			L218.94,338.218z"/>
	</g>
</g>
<g>
	<g>
		<path d="M360.145,0c-35.979,0-69.882,13.933-95.461,39.231c-2.945,2.913-2.971,7.661-0.059,10.606
			c2.913,2.945,7.661,2.971,10.606,0.059C297.985,27.393,328.141,15,360.145,15c66.586,0,120.758,54.172,120.758,120.758
			s-54.172,120.758-120.758,120.758c-29.894,0-58.581-11.006-80.775-30.991c-3.078-2.771-7.82-2.523-10.592,0.555
			c-2.771,3.078-2.523,7.82,0.555,10.592c24.954,22.469,57.205,34.843,90.812,34.843c74.857,0,135.758-60.901,135.758-135.758
			C495.903,60.901,435.002,0,360.145,0z"/>
	</g>
</g>
<g>
	<g>
		<path d="M424.274,128.258h-56.629V71.629c0-4.142-3.358-7.5-7.5-7.5c-4.142,0-7.5,3.358-7.5,7.5v56.629h-48.613
			c-4.142,0-7.5,3.358-7.5,7.5c0,4.143,3.358,7.5,7.5,7.5h48.613v56.629c0,4.142,3.358,7.5,7.5,7.5c4.142,0,7.5-3.358,7.5-7.5
			v-56.629h56.629c4.142,0,7.5-3.357,7.5-7.5C431.774,131.616,428.416,128.258,424.274,128.258z"/>
	</g>
</g>
<g>
</g>
<g>
</g>
<g>
</g>
<g>
</g>
<g>
</g>
<g>
</g>
<g>
</g>
<g>
</g>
<g>
</g>
<g>
</g>
<g>
</g>
<g>
</g>
<g>
</g>
<g>
</g>
<g>
</g>
</svg>
